<?xml version="1.0" standalone="no"?>
<!DOCTYPE svg PUBLIC "-//W3C//DTD SVG 20010904//EN"
 "http://www.w3.org/TR/2001/REC-SVG-20010904/DTD/svg10.dtd">
<svg version="1.0" xmlns="http://www.w3.org/2000/svg"
 width="260.000000pt" height="260.000000pt" viewBox="0 0 260.000000 260.000000"
 preserveAspectRatio="xMidYMid meet">
<metadata>
Created by potrace 1.11, written by Peter Selinger 2001-2013
</metadata>
<g transform="translate(0.000000,260.000000) scale(0.100000,-0.100000)"
fill="#000000" stroke="none">
<path d="M1500 1623 c-29 -10 -92 -44 -105 -56 -39 -39 -59 -117 -44 -171 16
-58 90 -113 175 -131 13 -3 35 -7 49 -10 48 -10 133 -46 146 -61 7 -9 12 -34
12 -55 -2 -71 -60 -111 -157 -111 -69 0 -124 17 -180 56 -30 20 -42 23 -52 15
-65 -53 102 -140 255 -133 78 4 154 44 186 98 43 74 26 166 -39 205 -33 20
-48 25 -186 66 -106 31 -130 49 -137 102 -11 81 60 134 173 129 52 -2 72 -8
124 -40 47 -29 64 -35 74 -26 30 24 4 60 -68 97 -40 21 -68 27 -131 29 -44 1
-87 0 -95 -3z"/>
<path d="M252 1611 c-11 -7 -14 -67 -14 -304 0 -163 3 -306 7 -317 6 -19 14
-20 195 -20 174 0 190 2 199 18 19 36 -5 42 -169 42 l-156 0 0 276 c1 151 -2
284 -6 295 -8 20 -33 25 -56 10z"/>
<path d="M932 1607 c-6 -7 -45 -89 -87 -182 -199 -443 -202 -448 -166 -458 29
-7 39 4 76 89 l34 79 173 3 173 2 24 -59 c36 -92 56 -120 80 -114 11 3 22 11
25 18 4 12 -36 110 -119 290 -17 38 -57 126 -85 190 -12 28 -31 70 -42 95 -11
25 -26 48 -32 52 -17 12 -42 9 -54 -5z m102 -241 c36 -82 66 -153 66 -158 0
-4 -63 -8 -140 -8 -77 0 -140 1 -140 3 0 2 22 53 49 113 26 60 58 131 70 158
12 27 23 47 25 45 2 -2 33 -71 70 -153z"/>
<path d="M1946 1605 c-3 -9 -6 -153 -6 -320 0 -310 1 -316 37 -321 28 -5 36
28 37 152 l1 124 115 1 c133 1 135 1 185 24 57 28 89 84 89 158 1 86 -25 134
-92 169 -48 25 -59 26 -205 27 -134 2 -155 0 -161 -14z m335 -68 c34 -23 53
-67 51 -120 -4 -90 -59 -119 -216 -115 l-101 3 0 129 -1 128 121 -4 c93 -3
126 -8 146 -21z"/>
</g>
</svg>
