<?xml version="1.0" standalone="no"?>
<!DOCTYPE svg PUBLIC "-//W3C//DTD SVG 20010904//EN"
 "http://www.w3.org/TR/2001/REC-SVG-20010904/DTD/svg10.dtd">
<svg version="1.0" xmlns="http://www.w3.org/2000/svg"
 width="260.000000pt" height="260.000000pt" viewBox="0 0 260.000000 260.000000"
 preserveAspectRatio="xMidYMid meet">
<metadata>
Created by potrace 1.11, written by Peter Selinger 2001-2013
</metadata>
<g transform="translate(0.000000,260.000000) scale(0.100000,-0.100000)"
fill="#000000" stroke="none">
<path d="M1498 1605 c-55 -20 -86 -45 -109 -89 -39 -72 -22 -156 40 -209 33
-27 71 -43 204 -82 95 -28 116 -48 103 -100 -24 -95 -223 -81 -256 19 l-11 35
-61 -4 c-34 -3 -63 -6 -64 -8 -2 -2 2 -25 10 -51 33 -108 107 -158 242 -163
94 -2 144 9 196 44 88 60 106 205 35 281 -33 36 -106 69 -192 88 -58 12 -99
29 -122 49 -27 23 -27 25 -13 52 17 30 44 41 105 42 53 1 87 -17 104 -57 14
-31 16 -32 77 -32 35 0 65 3 67 8 7 10 -19 82 -41 111 -33 47 -107 76 -197 77
-46 1 -96 -4 -117 -11z"/>
<path d="M160 1285 l0 -325 230 0 230 0 0 55 0 55 -165 0 -165 0 0 270 0 270
-65 0 -65 0 0 -325z"/>
<path d="M902 1598 c-7 -7 -12 -18 -12 -25 0 -7 -9 -32 -19 -56 -14 -32 -121
-298 -218 -545 -4 -10 11 -12 67 -10 l73 3 25 73 26 73 130 -3 130 -3 27 -70
27 -70 76 -3 75 -3 -14 28 c-7 15 -34 80 -60 143 -25 63 -55 134 -66 157 -10
24 -19 49 -19 56 0 7 -4 17 -8 23 -5 5 -17 29 -26 54 -10 25 -31 78 -48 118
l-30 72 -62 0 c-35 0 -67 -5 -74 -12z m108 -248 c4 -14 17 -49 29 -77 l21 -53
-86 0 c-84 0 -85 0 -79 23 7 23 49 134 67 177 l10 25 15 -35 c8 -19 19 -46 23
-60z"/>
<path d="M1988 1598 c-2 -7 -4 -152 -3 -323 l0 -310 66 -3 66 -3 -1 122 c-1
73 3 123 9 124 6 2 60 6 121 8 97 5 117 9 151 30 74 47 105 141 77 236 -16 53
-46 88 -97 111 -50 23 -382 30 -389 8z m301 -107 c67 -18 80 -114 20 -150 -37
-23 -189 -30 -190 -9 -1 21 -1 142 0 156 1 13 125 16 170 3z"/>
</g>
</svg>
